<svg width="1292" height="759" viewBox="0 0 1292 759" fill="none" xmlns="http://www.w3.org/2000/svg">
    <g stroke="#F9A743" clip-path="url(#clip0_1672_4663)">
        <path d="M-29.5056 450.434C104.32 433.689 238.878 387.585 337.903 348.102C438.044 308.173 527.17 264.881 626.181 240.35C735.606 213.106 774.531 223.147 787.715 229.01C805.975 237.154 797.158 243.215 819.948 262.59C863.723 299.812 901.326 281.849 911.033 306.995C927.138 348.68 830.3 414.92 814.847 486.131C803.634 537.718 838.22 577.697 948.09 546.686C1051.56 517.478 1140.24 448.346 1226.75 436.716C1262.29 431.938 1277.5 440.23 1307.9 456.816C1347 477.95 1358.3 504.924 1364.44 514.348C1382.58 542.307 1445.55 558.631 1651.06 497.476"  stroke-width="0.263706" stroke-miterlimit="10"/>
        <path d="M-56.1733 472.771C71.5673 458.012 203.294 416.009 308.893 374.992C395.195 341.229 473.728 304.612 554.234 277.845C571.821 272.009 589.794 266.335 607.806 261.372C721.271 230.135 767.581 233.69 785.809 236.116C810.28 239.347 805.013 243.849 827.524 262.679C843.42 275.923 857.059 283.375 868.734 288.198C888.596 296.382 903.059 296.617 906.884 313.203C908.372 319.34 907.643 326.916 904.708 335.784C891.164 376.775 827.578 429.877 820.538 484.687C814.409 532.398 854.276 567.383 962.613 536.593C971.202 534.149 980.196 531.287 989.557 528.02C1084.08 495.014 1162.01 439.126 1238.19 428.779C1246.23 427.675 1253.54 427.224 1260.08 427.431C1282.17 428.018 1296.76 435.668 1319.53 448.079C1357.08 468.775 1368.3 495.252 1375.02 505.676C1380.04 513.235 1387.49 519.084 1397.29 523.16C1430.99 537.465 1502.5 537.28 1652.27 494.981"  stroke-width="0.263706" stroke-miterlimit="10"/>
        <path d="M-85.2358 497.111C36.4636 484.291 165.06 446.72 277.724 403.691C367.172 369.539 449.585 331.013 530.671 302.966C549.209 296.538 568.248 290.024 587.113 284.375C704.655 249.116 761.042 243.822 781.624 245.185C808.086 246.994 810.605 246.465 832.798 264.724C848.296 277.544 860.473 286.168 870.408 292.192C887.223 302.276 898.84 304.104 900.336 321.397C900.822 328.059 899.4 335.925 896.093 344.877C881.637 385.644 824.945 435.509 823.851 485.288C822.842 529.09 868.001 559.076 974.81 528.506C983.962 525.824 992.65 523.152 1001.57 519.984C1098.59 486.335 1173.75 432.992 1247.13 423.005C1255.15 421.878 1262.45 421.395 1268.98 421.559C1291.66 421.962 1306.48 429.389 1328.44 441.706C1364.6 461.859 1375.6 487.916 1383.23 499.085C1388.2 506.58 1395.49 512.451 1405.02 516.641C1437.82 531.322 1506.92 532.895 1651.05 494.549"  stroke-width="0.263706" stroke-miterlimit="10"/>
        <path d="M-116.258 523.112C-0.712209 512.334 125.082 478.875 244.45 434.189C337.207 399.451 423.403 359.144 505.064 329.794C524.572 322.774 544.67 315.443 564.382 309.083C685.947 269.851 746.411 260.767 775.453 255.925C811.359 249.952 814.218 250.742 836.117 268.428C851.316 280.77 862.001 290.591 870.286 297.815C884.069 309.772 892.818 313.246 892.016 331.219C891.42 338.419 889.262 346.575 885.566 355.6C870.236 396.111 820.584 442.703 825.335 487.418C829.531 527.303 879.896 552.307 985.205 521.934C994.305 519.251 1002.96 516.579 1011.75 513.486C1111.38 479.072 1183.7 428.383 1254.56 418.504C1262.55 417.355 1269.84 416.84 1276.37 416.961C1299.69 417.151 1314.73 424.406 1335.99 436.5C1370.75 456.084 1381.61 481.688 1389.89 493.806C1394.91 501.189 1402.07 507.071 1411.3 511.406C1443.19 526.461 1509.87 529.817 1648.37 495.408"  stroke-width="0.263706" stroke-miterlimit="10"/>
        <path d="M-147.402 549.185C-37.9311 540.4 84.9615 511.11 211.08 464.742C307.194 429.394 397.185 387.282 479.4 356.678C499.859 349.066 521.025 340.896 541.594 333.847C667.097 290.717 734.35 275.438 769.18 266.761C810.341 256.501 817.662 255.115 839.343 272.224C854.229 284.16 863.406 295.104 870.094 303.453C880.874 317.261 886.675 322.432 883.628 341.057C881.956 348.779 879.075 357.216 875.002 366.314C858.88 406.516 816.242 449.852 826.689 489.648C836.129 525.582 891.661 545.624 995.462 515.475C1004.49 512.794 1013.11 510.122 1021.82 507.079C1124.06 471.924 1193.18 424.15 1261.72 414.227C1269.65 413.092 1276.92 412.544 1283.51 412.586C1307.38 412.59 1322.59 419.647 1343.29 431.515C1376.63 450.576 1387.3 475.752 1396.32 488.743C1401.32 496.056 1408.33 501.96 1417.3 506.41C1448.29 521.862 1512.59 526.952 1645.42 496.534"  stroke-width="0.263706" stroke-miterlimit="10"/>
        <path d="M-167.853 565.939C-64.4305 559.147 55.5504 534.069 188.386 486.051C287.852 450.091 381.727 406.127 464.363 374.392C485.786 366.169 507.934 357.264 529.425 349.457C658.819 302.458 732.766 281.117 773.522 268.436C819.751 254.071 831.879 250.305 853.212 266.849C864.955 276.02 874.033 287.114 880.403 300.071C888.281 315.691 891.051 322.607 885.871 341.745C883.566 350.138 879.013 359.128 875.256 367.852C858.506 407.612 822.73 447.838 839.018 482.557C853.829 514.483 914.504 529.571 1016.77 499.665C1025.75 496.985 1034.33 494.316 1042.95 491.325C1147.7 455.53 1214.11 410.274 1279.91 400.666C1287.79 399.53 1295.05 398.957 1301.63 398.952C1326.05 398.821 1341.56 405.597 1361.68 417.154C1393.71 435.6 1404.19 460.378 1413.95 474.231C1418.96 481.462 1425.86 487.372 1434.58 491.923C1464.67 507.76 1526.56 514.628 1653.77 488.168"  stroke-width="0.263706" stroke-miterlimit="10"/>
        <path d="M-182.797 577.854C-85.3713 573.003 31.74 552.113 171.246 502.509C274.066 465.947 371.833 420.096 454.718 387.415C477.146 378.558 500.267 368.897 522.639 360.385C655.918 309.607 736.543 282.241 783.259 265.512C834.35 247.178 851.41 240.909 872.512 256.856C884.331 265.795 892.33 277.486 896.421 291.806C901.397 309.181 901.152 317.887 893.647 337.732C890.38 346.487 884.905 355.863 880.987 364.683C863.403 404.19 835.083 440.815 856.863 470.73C877.155 498.591 942.907 508.773 1043.68 479.093C1052.58 476.417 1061.1 473.75 1069.67 470.812C1176.84 434.461 1240.5 391.808 1303.43 382.57C1311.3 381.41 1318.54 380.805 1325.13 380.76C1350.13 380.44 1365.91 386.983 1385.28 398.402C1415.92 416.302 1426.29 440.599 1436.77 455.356C1441.81 462.488 1448.58 468.404 1457.04 473.069C1486.27 489.284 1545.77 497.924 1667.41 475.399"  stroke-width="0.263706" stroke-miterlimit="10"/>
        <path d="M-197.892 589.933C-106.582 587.123 7.75052 570.312 153.969 519.12C260.158 481.929 361.861 434.14 445.173 400.359C468.665 390.817 492.798 380.401 515.975 371.234C653.037 316.73 740.252 283.444 793.081 262.497C849.105 240.293 871.009 231.453 891.854 246.806C903.637 255.642 910.432 268.062 912.105 283.836C914.201 302.917 910.843 313.512 901.236 333.887C896.923 343.032 890.653 352.715 886.462 361.709C868.266 400.789 847.213 434.021 874.501 459.089C900.342 482.843 971.078 488.152 1070.23 458.747C1079.08 456.074 1087.57 453.409 1096.07 450.498C1205.88 413.414 1266.57 373.437 1327.09 364.31C1334.9 363.151 1342.13 362.515 1348.75 362.403C1374.5 361.77 1390.37 368.207 1409.05 379.438C1438.4 396.72 1448.55 420.613 1459.84 436.201C1464.87 443.267 1471.51 449.205 1479.71 453.986C1508.17 470.479 1565.28 480.888 1681.22 462.393"  stroke-width="0.263706" stroke-miterlimit="10"/>
        <path d="M-213.078 602.066C-127.806 601.243 -16.2862 588.557 136.611 535.775C246.19 497.953 351.865 448.197 435.442 413.468C459.877 403.318 484.949 392.22 509.146 382.199C650.013 323.968 743.85 284.765 802.767 259.603C863.661 233.558 890.485 222.096 911.087 236.858C922.837 245.583 928.511 258.659 927.956 275.717C927.286 296.525 920.651 309.011 908.943 329.918C903.571 339.477 896.598 349.417 892.118 358.585C873.273 397.269 859.537 427.038 892.231 447.345C923.743 466.918 999.32 467.464 1097.03 438.278C1105.82 435.607 1114.28 432.944 1122.65 430.112C1234.92 392.468 1292.82 355.032 1350.75 346.121C1358.52 344.961 1365.74 344.292 1372.39 344.116C1398.79 343.245 1414.91 349.524 1432.9 360.521C1460.87 377.236 1470.87 400.702 1482.93 417.147C1487.92 424.159 1494.39 430.138 1502.31 435.055C1529.81 452.003 1584.65 464.08 1694.97 449.558"  stroke-width="0.263706" stroke-miterlimit="10"/>
        <path d="M-228.19 614.152C-148.868 615.241 -40.0901 606.648 119.464 552.298C232.537 513.814 342.106 462.07 425.928 426.441C451.411 415.607 477.405 403.828 502.464 393.102C647.029 331.222 747.47 286.131 812.607 256.63C878.293 226.87 910.096 212.691 930.438 226.862C942.077 235.554 946.565 249.348 943.725 267.704C940.307 290.163 930.35 304.639 916.569 326.053C910.135 336.026 902.435 346.202 897.743 355.567C878.313 393.829 872.102 419.988 909.986 435.689C947.218 451.039 1027.55 446.876 1123.76 417.935C1132.48 415.267 1140.9 412.606 1149.04 409.952C1263.78 371.721 1318.93 336.823 1374.17 328.176C1381.96 326.964 1389.19 326.263 1395.82 326.072C1422.64 325.166 1439.12 331.066 1456.65 341.748C1483.24 357.9 1493.07 380.941 1505.91 398.24C1510.53 404.506 1516.57 410.662 1525.03 416.097C1551.67 433.4 1604.13 447.245 1708.84 436.667"  stroke-width="0.263706" stroke-miterlimit="10"/>
        <path d="M-242.893 625.887C-169.729 628.988 -63.7373 624.51 102.484 568.616C218.895 529.474 332.561 475.686 416.619 439.18C443.131 427.663 470.037 415.228 496.017 403.747C644.351 338.215 751.402 287.262 822.6 253.453C893.251 219.829 929.841 203.085 949.939 216.665C961.483 225.333 964.833 239.823 959.815 259.388C953.652 283.525 940.204 300.017 924.511 321.888C917.017 332.275 908.597 342.708 903.559 352.25C883.599 390.043 884.714 412.749 927.882 423.751C971.051 434.752 1055.97 425.987 1150.65 397.289C1159.32 394.623 1167.7 391.964 1175.81 389.311C1293.03 350.493 1345.43 318.128 1398.09 309.718C1405.83 308.491 1413.02 307.764 1419.64 307.543C1447.15 306.398 1463.78 312.119 1480.47 322.67C1505.74 338.232 1515.34 360.877 1529 379.006C1533.63 385.22 1539.6 391.35 1547.73 396.913C1573.51 414.572 1623.62 430.16 1722.69 423.572"  stroke-width="0.263706" stroke-miterlimit="10"/>
        <path d="M-257.409 637.478C-190.287 642.61 -87.0651 642.147 85.7984 584.73C205.601 545.001 323.339 489.045 407.512 451.764C435.105 439.536 462.891 426.47 489.83 414.233C641.926 345.025 755.513 288.289 832.932 250.023C908.294 212.812 950.043 193.199 969.72 206.22C982.782 214.871 982.103 233.445 976.167 250.825C967.338 276.587 950.497 295.144 932.731 317.474C924.141 328.276 915.016 338.969 909.657 348.711C889.242 385.987 897.773 405.118 946.11 411.548C995.163 418.158 1084.68 404.867 1177.83 376.41C1186.43 373.746 1194.78 371.089 1202.87 368.438C1322.59 329.004 1372.23 299.17 1422.18 291.024C1429.89 289.783 1437.08 289.024 1443.71 288.752C1471.87 287.346 1488.68 292.912 1504.81 303.251C1528.7 318.253 1538.06 340.477 1552.51 359.462C1557.18 365.598 1563.02 371.754 1570.87 377.395C1595.78 395.435 1643.53 412.765 1737.06 410.063"  stroke-width="0.263706" stroke-miterlimit="10"/>
        <path d="M-271.778 648.908C-210.729 656.05 -109.945 659.317 69.2915 600.655C192.737 559.962 314.302 502.211 398.717 464.076C427.382 451.114 456.073 437.442 483.862 424.452C639.619 351.715 759.996 288.993 843.397 246.473C923.608 205.575 970.141 183.251 989.743 195.656C1002.5 203.869 1000.54 223.449 992.739 242.144C981.242 269.533 960.841 290.132 941.149 312.944C931.516 324.161 921.71 335.063 916.048 345.005C895.025 381.893 911.232 397.274 964.45 399.365C1019.56 401.507 1113.49 383.771 1205.15 355.529C1213.69 352.883 1221.99 350.228 1230.07 347.561C1352.24 307.586 1399.18 280.229 1446.45 272.346C1454.15 271.077 1461.32 270.286 1467.94 269.977C1496.72 268.359 1513.75 273.746 1529.25 283.852C1551.77 298.269 1560.84 320.198 1576.21 339.938C1580.86 346.047 1586.64 352.153 1594.22 357.897C1618.23 376.32 1663.63 395.391 1751.5 396.699"  stroke-width="0.263706" stroke-miterlimit="10"/>
        <path d="M-285.915 660.174C-230.897 669.274 -132.889 676.648 53.0208 616.412C179.872 575.079 305.612 515.131 390.076 476.292C419.751 462.648 449.356 448.318 478.085 434.573C637.54 358.258 764.681 289.651 854.115 242.728C939.24 198.116 990.748 172.98 1009.98 184.827C1022.48 192.578 1019.23 213.188 1009.46 233.249C995.335 262.263 971.313 284.955 949.672 308.226C938.856 319.886 928.464 331.02 922.491 341.139C901.122 377.534 922.003 391.717 983.092 386.898C1047.32 381.83 1142.61 362.397 1232.76 334.393C1241.24 331.75 1249.5 329.095 1257.56 326.43C1382.02 286.063 1426.43 261.004 1471.03 253.384C1478.69 252.107 1485.85 251.292 1492.47 250.943C1521.84 249.138 1539.19 254.294 1554.03 264.119C1574.95 278.104 1583.73 299.765 1600.05 320.21C1604.71 326.268 1610.38 332.375 1617.65 338.222C1640.79 357.028 1683.83 377.841 1766.08 383.106"  stroke-width="0.263706" stroke-miterlimit="10"/>
        <path d="M-299.993 671.313C-250.961 682.346 -155.803 693.877 36.8134 632.038C167.072 590.065 296.853 527.944 381.602 488.274C412.404 473.893 442.832 458.983 472.565 444.384C635.847 364.413 769.445 290.075 865.071 238.721C955.124 190.444 1011.46 162.646 1030.49 173.882C1042.71 181.171 1038.2 202.788 1026.49 224.215C1009.79 254.804 982.091 279.591 958.635 303.293C946.674 315.394 935.687 326.738 929.362 337.083C907.428 372.993 938.728 380.938 1001.88 374.279C1069.18 367.248 1171.84 340.875 1260.47 313.109C1268.82 310.453 1277.17 307.796 1285.14 305.15C1412.11 264.164 1453.84 241.602 1495.73 234.269C1503.37 232.964 1510.51 232.116 1517.13 231.731C1547.12 229.714 1564.6 234.695 1578.82 244.336C1598.59 257.635 1607.26 278.753 1624.2 300.182C1628.89 306.188 1634.62 312.17 1641.49 318.246C1663.91 337.285 1704.46 359.964 1781.01 369.188"  stroke-width="0.263706" stroke-miterlimit="10"/>
        <path d="M-313.766 682.327C-270.858 695.393 -178.447 710.978 20.8846 647.56C154.625 604.943 288.541 540.527 373.299 500.2C405.132 485.062 436.481 469.592 467.04 454.289C633.845 371.011 774.454 290.438 875.984 234.735C971.05 182.644 1032.08 152.188 1050.92 162.886C1062.86 169.716 1057.13 192.337 1043.48 215.107C1024.04 247.422 992.814 274.153 967.482 298.338C954.292 310.908 942.777 322.433 936.111 332.981C913.735 368.406 952.843 372.432 1020.66 361.617C1094.06 350.002 1201.1 319.311 1288.23 291.757C1296.58 289.101 1304.8 286.449 1312.54 284.004C1442.03 242.397 1481.1 222.255 1520.34 215.185C1527.96 213.896 1535.08 213.066 1541.66 212.698C1569.69 210.65 1590.59 214.681 1603.53 224.632C1621.91 237.374 1630.4 258.077 1648.12 280.362C1652.85 286.293 1658.37 292.351 1664.98 298.456C1696.44 326.506 1740.19 345.601 1795.64 355.48"  stroke-width="0.263706" stroke-miterlimit="10"/>
        <path d="M-327.528 693.274C-290.669 708.322 -201.045 728.01 4.99899 662.988C142.079 619.728 280.081 553.162 365.139 512.05C742.857 329.414 1029.56 128.786 1071.65 151.76C1083.31 158.129 1076.35 181.757 1060.72 205.893C1027.39 257.399 963.564 297.421 943.12 328.777C892.969 405.673 1179.4 314.075 1340.36 262.61C1497.31 212.418 1519.03 196.969 1566.47 193.343C1649.35 186.953 1638.58 229.649 1688.81 278.445C1718.85 307.311 1759.62 328.41 1810.71 341.523"  stroke-width="0.263706" stroke-miterlimit="10"/>
        <path d="M-336.094 700.666C-299.552 717.218 -211.25 735.034 -14.2049 672.802C121.938 629.733 258.045 562.597 348.31 519.343C708.649 346.767 973.132 162.978 1026.42 177.474C1047.26 183.129 1061.06 195.152 1057.16 214.201C1049.48 251.659 995.47 286.324 981.148 316.479C949.74 382.538 1210.21 302.792 1361.47 255.48C1509 209.241 1527.4 196.737 1571.47 198.093C1644.71 200.341 1637.96 238.07 1684.18 284.966C1713.03 314.208 1753.92 334.763 1806.31 346.36"  stroke-width="0.263706" stroke-miterlimit="10"/>
        <path d="M-345.017 708.366C-285.26 736.97 -177.634 728.164 -33.7316 682.896C101.442 640.045 235.61 572.288 331.16 526.916C674.407 363.978 920.758 194.281 980.901 203.469C1011.4 208.149 1044.57 208.699 1053.25 222.81C1068.25 246.929 1026.81 275.139 1018.82 304.48C1003.63 360.473 1240.7 291.781 1382.28 248.624C1520.22 206.341 1535.63 196.531 1576.17 203.118C1640.18 213.483 1636.72 247.021 1679.2 291.789C1706.88 321.386 1747.86 341.4 1801.49 351.501"  stroke-width="0.263706" stroke-miterlimit="10"/>
        <path d="M-360.862 721.902C-304.342 750.95 -200.227 742.961 -60.1325 698.826C74.0949 656.168 206.342 587.794 307.13 540.331C633.35 386.724 841.571 248.921 928.487 235.331C982.858 226.831 1019.78 228.856 1042.53 237.256C1076.93 249.923 1050.75 269.846 1049.69 298.307C1047.94 345.422 1264.11 286.872 1396.25 247.62C1524.46 209.545 1537.23 201.954 1574.07 213.973C1629.35 232.001 1628.73 261.772 1667.49 304.431C1693.96 334.418 1735.07 353.898 1789.97 362.477"  stroke-width="0.263706" stroke-miterlimit="10"/>
        <path d="M-384.988 742.419C-331.679 771.889 -231.033 764.69 -94.7081 721.659C38.6277 679.171 168.938 610.187 274.954 560.663C584.372 416.123 776.826 291.38 867.957 274.133C935.637 261.338 1004.05 242.646 1023.66 258.642C1050.65 280.651 1050.79 282.215 1072.44 299.066C1059.92 352.298 1279.51 288.815 1402.18 253.548C1520.81 219.506 1531 214.111 1563.92 231.785C1610.93 257.044 1612.58 283.55 1647.75 323.992C1673.05 354.353 1714.29 373.289 1770.49 380.338"  stroke-width="0.263706" stroke-miterlimit="10"/>
        <path d="M-409.679 763.409C-359.609 793.321 -262.511 786.985 -130.047 745.164C2.33635 702.897 130.779 633.229 242.016 581.667C534.783 445.947 712.764 333.128 806.536 313.613C887.339 296.819 968.011 271.36 1004.01 280.728C1050.44 292.801 1062.22 287.317 1094.41 300.526C1091.44 347.689 1294.34 291.236 1407.22 260.154C1516.28 230.146 1524.2 226.693 1552.88 250.274C1592.15 282.408 1595.49 306.054 1627.14 344.229C1651.27 374.967 1692.66 393.36 1750.14 398.873"  stroke-width="0.263706" stroke-miterlimit="10"/>
        <path d="M-434.855 784.815C-387.966 815.104 -294.392 809.59 -165.791 768.96C-34.3287 726.889 92.2097 656.537 208.67 602.963C484.97 475.861 649.189 374.358 744.947 353.374C838.31 332.915 914.072 316.149 983.99 303.078C1070.33 286.931 1073.31 292.661 1116 302.252C1122.49 343.498 1308.72 294.046 1412.1 267.046C1511.58 241.071 1517.41 239.409 1541.68 269.047C1573.37 307.782 1578.08 328.944 1606.26 364.778C1629.22 395.881 1670.78 413.73 1729.51 417.721"  stroke-width="0.263706" stroke-miterlimit="10"/>
        <path d="M-460.354 806.49C-425.135 831.985 -345.378 838.895 -201.838 793.05C-71.5358 751.425 53.3817 680.089 175.009 624.554C434.953 505.869 585.905 415.303 682.918 393.432C788.669 369.605 877.444 346.665 963.673 325.722C1066.98 300.608 1102.51 283.984 1137.3 304.276C1173.36 325.294 1322.67 297.229 1416.54 274.235C1506.48 252.269 1510.34 252.321 1530.07 288.093C1554.7 333.194 1560.19 352.18 1585.15 385.594C1600.67 406.363 1629.19 433.323 1708.66 436.835"  stroke-width="0.263706" stroke-miterlimit="10"/>
        <path d="M-486.286 828.548C-451.235 855.491 -372.899 860.573 -238.305 817.498C-108.955 776.095 14.1993 703.925 140.943 646.502C384.617 536.086 522.42 456.208 620.504 433.845C738.278 406.978 840.401 377.685 942.941 348.724C1063.32 314.717 1112.48 289.896 1158.19 306.659C1201.66 322.717 1336.44 300.57 1420.6 281.784C1501.04 263.825 1503.44 265.234 1518.06 307.52C1535.83 358.81 1541.76 375.875 1563.55 406.769C1578.3 427.703 1605.92 454.683 1687.29 456.336"  stroke-width="0.263706" stroke-miterlimit="10"/>
        <path d="M-512.529 850.855C-477.737 879.368 -400.728 882.5 -275.112 842.219C-146.711 801.037 -25.3251 728.009 106.541 668.723C334.066 566.425 458.895 497.129 557.738 474.528C687.299 444.897 803.027 409.048 921.876 371.996C1059.45 329.117 1121.46 296.66 1178.75 309.313C1229.58 320.536 1349.73 304.31 1424.32 289.605C1495.2 275.606 1496.25 278.394 1505.69 327.219C1516.84 384.595 1522.89 399.917 1541.62 428.216C1555.6 449.339 1582.15 476.441 1665.62 476.083"  stroke-width="0.263706" stroke-miterlimit="10"/>
        <path d="M-539.161 873.485C-504.556 903.399 -428.907 904.727 -312.288 867.241C-184.808 826.255 -65.1402 752.294 71.7683 691.245C283.224 596.938 408.253 525.952 494.621 515.508C617.077 500.693 765.313 440.734 900.447 395.568C1055.25 343.842 1162.85 278.894 1198.94 312.269C1228.99 340.237 1362.76 308.2 1427.69 297.726C1488.96 287.759 1488.86 291.751 1493.02 347.191C1497.71 410.549 1503.5 424.359 1519.33 449.962C1532.48 471.3 1558.09 498.448 1643.55 496.153"  stroke-width="0.263706" stroke-miterlimit="10"/>
        <path d="M-566.638 896.855C-532.255 928.263 -457.884 927.641 -350.463 893.152C-223.919 852.361 -105.886 777.366 35.9818 714.656C231.55 628.213 341.557 569.573 430.473 557.377C565.882 538.764 726.634 473.33 878.031 420.027C1050.14 359.452 1165.19 290.235 1218.16 316.114C1260.15 336.659 1374.72 313.154 1430.04 306.737C1481.8 300.727 1480.74 305.893 1479.29 368.078C1477.72 437.339 1483.03 449.763 1496.06 472.596C1508.33 494.173 1533.06 521.317 1620.54 517.087"  stroke-width="0.263706" stroke-miterlimit="10"/>
        <path d="M-595.865 921.685C-561.73 954.592 -488.738 952.114 -390.075 920.244C-264.45 879.649 -147.989 803.523 -1.2222 739.249C178.35 660.599 273.431 614.376 364.932 600.426C513.629 577.76 686.555 507.134 854.166 445.693C1043.76 376.193 1164.95 304.135 1235.93 321.169C1289.9 334.12 1385.33 319.167 1431.01 316.93C1473.27 314.852 1471.32 321.167 1464.2 390.144C1456.45 465.256 1461.09 476.449 1471.35 496.435C1482.67 518.329 1506.71 545.388 1596.09 539.225"  stroke-width="0.263706" stroke-miterlimit="10"/>
        <path d="M-625.596 946.942C-591.685 981.347 -520.033 976.97 -430.367 947.914C-305.628 907.489 -190.618 830.081 -39.1015 764.417C124.674 693.433 204.633 659.701 298.699 644.048C460.937 617.056 645.871 541.482 829.661 471.909C1036.83 393.506 1163.26 319.632 1253.06 326.772C1318.97 332.01 1395.39 325.679 1431.3 327.698C1464.09 329.501 1461.4 336.911 1448.42 412.784C1434.63 493.72 1438.07 503.914 1445.98 520.848C1456.21 543.134 1479.46 570.065 1570.98 561.939"  stroke-width="0.263706" stroke-miterlimit="10"/>
        <path d="M-657.961 974.421C-624.219 1010.29 -553.818 1003.89 -473.257 977.779C-349.193 937.298 -235.696 858.634 -79.5764 791.782C68.4581 728.387 133.254 707.196 229.891 689.864C405.901 658.294 602.618 578.049 802.51 500.32C1027.11 413.018 1146.39 348.747 1267.57 334.573C1353.89 324.495 1402.8 334.388 1428.98 340.662C1452.41 346.295 1448.92 354.849 1430.06 437.593C1410.22 524.376 1412.59 533.469 1418.03 547.405C1426.92 570.261 1449.76 596.88 1543.27 586.82"  stroke-width="0.263706" stroke-miterlimit="10"/>
        <path d="M-689.971 1001.62C-656.478 1038.99 -587.408 1030.71 -515.827 1007.4C-392.687 967.106 -280.249 886.661 -119.739 818.895C12.623 763.012 62.1806 754.412 161.377 735.424C351.407 699.052 559.722 614.335 775.807 528.495C1018.05 432.24 1147.75 362.622 1282.52 342.136C1376.07 327.963 1410.9 342.684 1427.1 353.365C1441.22 362.802 1437.05 372.45 1412.12 462.167C1386.4 554.72 1387.3 562.944 1390.5 573.754C1397.53 597.51 1420.5 623.44 1516.03 611.445"  stroke-width="0.263706" stroke-miterlimit="10"/>
        <path d="M-722.037 1028.85C-688.781 1067.69 -620.937 1057.55 -558.403 1037.01C-436.271 996.92 -324.472 914.292 -159.917 846.009C-43.1113 797.537 -8.92815 801.628 92.865 780.985C297.121 739.559 516.952 650.519 749.032 556.647C1008.91 451.463 1149.27 376.394 1297.41 349.677C1398.39 331.477 1419.12 350.854 1425.15 366.07C1430.29 379.058 1425.1 390.027 1394.1 486.744C1362.5 585.09 1361.76 592.523 1362.89 600.08C1366.66 625.655 1391.11 650.029 1488.65 636.098"  stroke-width="0.263706" stroke-miterlimit="10"/>
    </g>
    <defs>
        <clipPath id="clip0_1672_4663">
            <rect width="519.247" height="1661.78" fill="white" transform="translate(1422.47 -147) rotate(66.2005)"/>
        </clipPath>
    </defs>
    <style>
        .icon-primary g {
            color: var(--os-color-primary);
        }
    </style>
</svg>
