<svg width="390" height="524" viewBox="0 0 390 524" fill="none" xmlns="http://www.w3.org/2000/svg">
    <g stroke="#F9A743" clip-path="url(#clip0_1664_4489)">
        <path d="M-299.076 603.857C-237.213 569.729 -201.023 518.999 -179.326 478.55C-157.386 437.644 -144.751 396.888 -109.773 364.828C-71.234 329.322 -39.9868 327.76 -27.2161 328.612C-9.50609 329.805 -9.17595 334.834 21.1138 341.49C79.2997 354.278 84.8993 337.252 112.815 349.563C159.099 369.968 162.438 425.021 216.866 467.821C256.285 498.83 311.651 514.862 347.097 477.161C380.477 441.653 369.886 386.486 409.165 363.972C425.3 354.723 441.391 356.564 473.564 360.249C514.771 364.876 545.225 377.918 557.123 382.069C592.373 394.4 642.996 391.917 706.496 319.631"  stroke-width="0.263706" stroke-miterlimit="10"/>
        <path d="M-294.517 621.315C-234.378 589.426 -196.168 541.519 -172.064 498.995C-152.579 464.106 -140.087 429.051 -117.707 399.158C-112.809 392.634 -107.545 386.129 -101.626 380.016C-64.3196 341.524 -34.6026 334.958 -21.9931 332.95C-5.08797 330.239 -4.10714 333.738 25.5381 340.14C46.425 344.63 60.8701 346.29 71.8517 346.837C90.5159 347.757 99.0184 345.215 115.953 353.812C122.261 356.979 128.577 361.363 134.775 366.88C163.439 392.376 174.17 433.914 218.846 465.959C257.736 493.854 311.693 506.11 346.456 468.815C349.209 465.857 351.823 462.589 354.288 459.027C379.158 423.043 374.18 377.29 408.668 357.407C412.299 355.301 416.094 353.696 420.025 352.604C433.214 348.851 448.382 350.445 472.468 353.199C512.4 357.866 542.362 370.646 555.484 375.249C565.079 378.562 574.549 380.466 583.796 380.94C615.835 382.735 656.678 369.415 704.975 318.007"  stroke-width="0.263706" stroke-miterlimit="10"/>
        <path d="M-289.551 640.339C-231.154 610.654 -190.799 565.812 -164.432 520.853C-143.488 485.164 -130.468 448.322 -108.894 417.604C-103.976 410.572 -98.8469 403.399 -93.0493 396.743C-56.9797 355.241 -29.3471 341.85 -16.3324 338.811C0.450204 334.934 1.42434 334.172 30.3799 340.312C50.6617 344.638 65.3094 347.225 76.361 348.768C94.9662 351.316 103.253 350.194 119.48 359.618C125.68 363.265 131.856 367.94 137.916 373.573C165.858 399.111 177.665 437.56 221.28 465.684C259.632 490.44 312.18 498.913 346.263 462.025C349.127 458.828 351.735 455.724 354.034 452.299C379.765 415.493 375.459 371.68 408.667 352.514C412.262 350.401 416.018 348.781 419.91 347.666C433.276 343.699 448.373 345.127 471.914 347.977C510.562 352.598 540.027 365.181 554.33 370.036C563.845 373.32 573.243 375.266 582.432 375.855C614.288 378.028 655.315 366.138 703.89 317.991"  stroke-width="0.263706" stroke-miterlimit="10"/>
        <path d="M-284.231 660.657C-227.548 633.255 -185.145 591.238 -156.406 544.11C-134.087 507.481 -120.479 468.941 -99.7339 437.384C-94.7861 429.841 -89.7754 422.015 -84.1242 414.804C-49.2776 370.329 -22.6761 354.059 -10.3258 345.975C4.95773 335.989 7.29927 335.903 35.5769 341.776C55.2619 345.89 70.1179 349.423 81.2896 351.944C99.8213 356.104 107.927 356.435 123.44 366.665C129.498 370.814 135.508 375.787 141.411 381.533C168.625 407.09 181.559 442.401 224.026 466.604C261.88 488.201 312.986 492.917 346.384 456.417C349.218 453.23 351.805 450.132 354.1 446.771C380.649 409.054 377.069 367.256 408.925 348.618C412.488 346.496 416.208 344.86 420.066 343.72C433.604 339.518 448.68 340.806 471.621 343.661C508.959 348.221 537.942 360.577 553.46 365.844C562.903 369.056 572.234 371.033 581.379 371.759C613.052 374.308 654.271 363.867 703.115 318.968"  stroke-width="0.263706" stroke-miterlimit="10"/>
        <path d="M-278.919 681.038C-223.948 655.877 -179.504 616.734 -148.388 567.416C-124.687 529.824 -110.506 489.57 -90.5581 457.208C-85.5903 449.157 -80.7141 440.662 -75.1828 432.906C-41.5426 385.518 -16.5548 364.517 -4.29249 353.212C10.194 339.85 13.161 337.72 40.7994 343.309C59.9446 347.253 74.9349 351.695 86.1904 355.142C104.644 360.895 112.568 362.724 127.373 373.734C133.277 378.374 139.123 383.639 144.874 389.495C171.359 415.025 185.423 447.214 226.784 467.605C264.134 486.016 313.794 486.995 346.525 450.898C349.319 447.726 351.886 444.634 354.181 441.317C381.564 402.702 378.746 363.128 409.23 344.895C412.768 342.793 416.454 341.141 420.267 339.947C433.962 335.537 448.955 336.685 471.373 339.516C507.435 344.045 535.933 356.194 552.649 361.815C562.019 364.992 571.286 367.008 580.38 367.847C611.886 370.787 653.288 361.757 702.424 320.145"  stroke-width="0.263706" stroke-miterlimit="10"/>
        <path d="M-275.758 694.216C-222.485 671.291 -175.967 635.049 -142.466 583.563C-117.385 545.008 -102.624 502.998 -83.4394 469.923C-78.4628 461.352 -73.6759 452.263 -68.29 443.912C-35.8567 393.634 -12.4173 367.996 -0.315683 353.35C13.4287 336.748 17.0367 332.394 43.9748 337.731C58.8597 340.705 73.9253 345.25 89.0949 351.34C107.495 358.646 115.231 362.013 129.268 373.705C135.406 378.839 140.785 384.723 146.385 390.311C172.116 415.709 187.352 444.885 227.55 461.349C264.419 476.52 312.624 473.768 344.694 438.091C347.459 434.93 350.006 431.847 352.293 428.575C380.551 389.137 378.414 351.477 407.61 333.926C411.119 331.833 414.77 330.17 418.543 328.95C432.43 324.363 447.344 325.298 469.156 328.061C503.918 332.488 531.952 344.449 549.856 350.417C559.16 353.546 568.367 355.586 577.415 356.527C608.749 359.848 650.343 352.262 699.779 313.908"  stroke-width="0.263706" stroke-miterlimit="10"/>
        <path d="M-273.739 703.661C-222.179 682.933 -173.585 649.57 -137.668 595.962C-111.198 556.45 -95.8823 512.661 -77.3961 479.011C-72.4064 469.897 -67.7327 460.205 -62.4681 451.296C-31.1668 398.18 -9.25279 367.928 2.67008 349.91C15.6743 330.183 19.887 323.514 46.1614 328.559C60.8837 331.388 75.862 336.467 90.9353 343.744C109.231 352.57 116.828 357.498 130.162 370.017C136.07 375.532 141.262 381.803 146.855 387.474C171.884 412.885 188.194 438.662 227.272 451.417C263.672 463.294 310.428 456.853 341.838 421.579C344.564 418.433 347.083 415.362 349.382 412.131C378.538 371.932 377.132 336.242 405.017 319.428C408.493 317.324 412.111 315.645 415.851 314.402C429.9 309.603 444.766 310.356 466.023 313.181C499.502 317.559 527.045 329.27 546.171 335.611C555.401 338.68 564.541 340.746 573.539 341.8C604.711 345.493 646.512 339.342 696.249 304.225"  stroke-width="0.263706" stroke-miterlimit="10"/>
        <path d="M-271.659 713.226C-221.793 694.774 -171.166 664.213 -132.812 608.473C-104.97 567.985 -89.1192 522.382 -71.3647 488.036C-66.3735 478.342 -61.7918 468.038 -56.648 458.613C-26.4874 402.708 -6.0553 367.918 5.62289 346.404C18.0172 323.594 22.7227 314.587 48.3217 319.347C62.9321 322.125 77.8675 327.836 92.8467 336.375C111.007 346.69 118.497 353.253 131.097 366.458C136.751 372.384 141.762 378.975 147.352 384.794C171.65 410.078 189.113 432.61 227.041 441.628C262.972 450.175 308.257 440.08 338.986 405.259C341.684 402.124 344.184 399.06 346.47 395.857C376.486 354.759 375.756 321.119 402.353 304.814C405.801 302.721 409.382 301.027 413.079 299.741C427.283 294.626 442.109 295.303 462.799 298.152C494.989 302.421 522.05 313.946 542.379 320.603C551.544 323.636 560.625 325.741 569.579 326.906C600.557 330.897 642.562 326.18 692.611 294.378"  stroke-width="0.263706" stroke-miterlimit="10"/>
        <path d="M-269.584 722.839C-221.414 706.617 -168.735 678.889 -127.964 621.023C-98.7388 579.555 -82.3583 532.114 -65.2943 497.187C-60.3031 486.977 -55.7885 476.119 -50.819 466.025C-21.7882 407.327 -2.81791 367.993 8.60649 342.99C20.3794 317.126 25.5753 305.739 50.5105 310.212C65.0031 312.934 79.8785 319.22 94.7208 328.891C112.83 340.686 120.122 348.916 131.99 362.807C137.404 369.161 142.24 376.026 147.82 381.997C171.393 407.178 189.974 426.415 226.771 431.762C262.239 436.917 306.065 423.255 336.161 388.824C338.83 385.701 341.311 382.644 343.596 379.508C374.52 337.644 374.457 305.942 399.757 290.237C403.179 288.151 406.727 286.441 410.384 285.113C424.75 279.745 439.574 280.289 459.667 283.131C490.56 287.338 517.151 298.652 538.681 305.648C547.779 308.658 556.803 310.815 565.712 312.111C596.546 316.534 638.733 313.172 689.091 284.637"  stroke-width="0.263706" stroke-miterlimit="10"/>
        <path d="M-267.508 732.411C-221.051 718.361 -166.307 693.436 -123.111 633.46C-92.4696 590.975 -75.623 541.7 -59.2194 506.222C-54.2343 495.436 -49.7962 484.024 -44.9585 473.376C-17.0517 411.947 0.473295 368.09 11.6084 339.504C22.8272 310.67 28.4637 296.839 52.7236 301.028C67.1242 303.752 81.9569 310.66 96.6427 321.481C114.644 334.711 121.8 344.671 132.929 359.229C138.103 366.013 142.731 373.143 148.364 379.264C171.228 404.317 190.915 420.138 226.596 421.943C261.59 423.672 303.96 406.489 333.409 372.474C336.039 369.365 338.501 366.317 340.815 363.322C372.633 320.672 373.246 290.903 397.239 275.844C400.629 273.724 404.151 271.994 407.787 270.661C422.36 265.197 437.053 265.46 456.601 268.212C486.206 272.357 512.318 283.465 535.059 290.795C543.279 293.455 552.214 295.792 561.894 297.277C592.55 302.059 634.941 300.129 685.59 274.841"  stroke-width="0.263706" stroke-miterlimit="10"/>
        <path d="M-265.512 741.711C-220.798 729.928 -163.994 707.826 -118.347 645.752C-86.3773 602.281 -68.9977 551.101 -53.2379 515.088C-48.2703 503.728 -43.8923 491.78 -39.1971 480.539C-12.3744 416.364 3.73183 367.998 14.5131 335.874C25.146 303.956 31.2474 287.801 54.8432 291.704C69.1671 294.432 83.9667 301.941 98.4773 313.843C116.396 328.521 123.341 340.257 133.78 355.425C138.714 362.636 143.158 370.045 148.749 376.329C170.892 401.217 191.712 413.747 226.246 411.939C260.78 410.131 301.688 389.52 330.478 355.923C333.079 352.825 335.523 349.785 337.818 346.798C370.539 303.359 371.827 275.519 394.547 261.07C397.898 258.95 401.378 257.213 404.972 255.867C419.736 250.138 434.353 250.275 453.306 253.107C481.627 257.167 507.257 268.094 531.203 275.739C539.382 278.368 548.254 280.703 557.863 282.32C588.342 287.461 630.931 286.943 681.891 264.937"  stroke-width="0.263706" stroke-miterlimit="10"/>
        <path d="M-263.533 750.896C-220.479 741.369 -161.696 722.031 -113.593 657.875C-80.1994 613.447 -62.4119 560.299 -47.2749 523.831C-42.3193 511.871 -37.997 499.407 -33.4239 487.564C-7.71094 420.632 7.0032 367.814 17.3908 332.041C27.5374 297.24 34.0479 278.522 56.9052 282.19C72.0841 284.628 88.2025 295.171 100.246 306.017C118.079 322.1 124.914 335.621 134.572 351.43C139.246 359.077 143.517 366.762 149.102 373.216C170.525 397.899 192.42 407.053 225.855 401.726C259.861 396.367 299.383 372.367 327.514 339.187C330.076 336.104 332.501 333.071 334.787 330.087C368.396 285.841 370.348 259.932 391.749 246.131C395.071 244.009 398.518 242.255 402.077 240.878C416.977 234.884 431.563 234.899 450.003 237.718C477.036 241.717 502.158 252.452 527.315 260.432C535.449 263.01 544.267 265.384 553.785 267.096C584.103 272.612 626.889 273.506 678.128 254.704"  stroke-width="0.263706" stroke-miterlimit="10"/>
        <path d="M-261.615 759.963C-220.258 752.685 -159.557 735.891 -108.906 669.858C-74.28 624.217 -55.8939 569.355 -41.3771 532.362C-36.4582 519.793 -32.1561 506.821 -27.7653 494.399C-3.08883 424.811 10.1996 367.381 20.2365 328.116C29.8862 290.35 36.7313 269.227 58.9977 272.563C73.6128 274.812 89.8918 286.157 102.033 298.085C119.782 315.573 126.391 330.898 135.373 347.334C139.817 355.405 143.884 363.333 149.473 369.957C170.201 394.533 193.166 400.165 225.544 391.502C259.054 382.517 297.157 355.208 324.622 322.425C327.163 319.364 329.566 316.34 331.829 313.35C366.363 268.347 368.967 244.327 389.069 231.168C392.355 229.034 395.766 227.264 399.287 225.867C414.355 219.64 428.906 219.515 446.777 222.319C472.506 226.243 497.197 236.867 523.554 245.099C531.654 247.666 540.393 250.023 549.844 251.844C579.99 257.74 622.974 260.047 674.526 244.54"  stroke-width="0.263706" stroke-miterlimit="10"/>
        <path d="M-259.709 768.895C-220.07 763.83 -157.31 749.853 -104.232 681.704C-68.2213 635.074 -49.3933 578.208 -35.4742 540.811C-30.5826 527.673 -26.3412 514.163 -22.0813 501.144C1.53538 428.866 13.4715 366.884 23.0563 324.034C32.2232 283.277 39.4207 259.658 60.9784 262.748C75.0355 264.786 91.4906 276.947 103.72 290.005C121.404 308.89 127.796 326.059 136.068 343.112C140.228 351.651 144.165 359.817 149.733 366.597C169.825 390.961 194.406 395.057 225.156 381.064C257.484 366.35 294.857 337.838 321.671 305.466C324.181 302.418 326.56 299.401 328.811 296.418C364.311 250.771 367.509 228.506 386.312 215.989C389.57 213.857 392.95 212.077 396.437 210.657C411.678 204.216 426.211 203.901 443.453 206.669C467.88 210.647 492.166 221.174 519.693 229.627C527.752 232.163 536.433 234.54 545.799 236.477C575.783 242.749 618.963 246.468 670.807 234.221"  stroke-width="0.263706" stroke-miterlimit="10"/>
        <path d="M-257.882 777.745C-219.958 774.871 -155.139 763.751 -99.6393 693.464C-62.2435 645.845 -43.028 587.014 -29.6845 549.098C-24.8013 535.339 -20.6037 521.351 -16.5283 507.667C6.0338 432.631 16.5796 366.241 25.7765 319.761C34.5123 276.038 42.1145 250.033 63.0131 252.818C76.5012 254.648 93.127 267.607 105.455 281.79C123.063 302.035 129.209 321.058 136.823 338.688C140.719 347.686 144.501 356.08 150.068 363.052C169.405 387.249 194.416 385.92 224.712 370.513C257.06 354.13 292.492 320.363 318.645 288.406C321.072 285.374 323.499 282.34 325.718 279.383C362.106 232.925 365.98 212.558 383.487 200.702C386.709 198.557 390.053 196.762 393.503 195.323C408.912 188.648 423.36 188.212 440.084 190.991C463.245 194.797 486.985 205.04 515.742 213.929C523.771 216.432 532.376 218.727 541.713 220.866C571.492 227.401 614.906 232.627 667.001 223.653"  stroke-width="0.263706" stroke-miterlimit="10"/>
        <path d="M-255.993 786.469C-219.773 785.867 -152.927 777.529 -94.9789 705.115C-56.1593 656.491 -36.6132 595.608 -23.8475 557.322C-19.0465 542.948 -14.8179 528.476 -10.8943 514.244C10.749 436.702 19.7745 365.519 28.4917 315.509C36.7129 268.719 44.6433 240.356 64.957 242.874C77.8765 244.498 94.6926 258.247 107.103 273.541C124.677 295.26 130.525 316.026 137.492 334.273C141.1 343.762 144.74 352.355 150.292 359.504C168.944 383.51 194.949 378.54 224.228 359.94C255.997 339.859 290.107 302.859 315.583 271.3C318.01 268.267 320.369 265.26 322.632 262.458C359.918 215.186 364.422 196.666 380.638 185.449C383.861 183.318 387.206 181.537 390.657 180.112C404.91 173.783 420.478 172.182 436.74 175.373C458.611 179.122 481.874 189.167 511.843 198.391C519.827 200.844 528.38 203.221 537.594 205.424C580.564 215.344 622.626 217.968 663.207 213.26"  stroke-width="0.263706" stroke-miterlimit="10"/>
        <path d="M-254.156 795.153C-219.643 796.781 -150.748 791.26 -90.3767 716.705C-50.2131 667.104 -30.2341 604.259 -17.9944 565.478C36.2948 393.221 22.4003 227.695 66.9557 232.802C79.305 234.219 96.3127 248.759 108.801 265.186C135.463 300.238 134.431 334.483 150.575 355.85C190.158 408.252 273.008 303.933 319.574 245.316C364.974 188.153 363.696 175.474 387.681 164.671C429.534 145.768 461.304 171.707 533.477 189.795C576.357 200.435 618.492 204.734 659.447 202.646"  stroke-width="0.263706" stroke-miterlimit="10"/>
        <path d="M-252.497 800.882C-216.83 803.413 -150.356 797.085 -92.6662 725.759C-52.8699 676.438 -34.4851 613.624 -21.1625 572.679C32.1018 409.278 20.4299 257.303 63.8758 255.585C80.8484 254.906 99.4477 259.1 114.144 270.504C143.029 292.936 142.867 322.362 161.454 341.923C202.154 384.782 280.652 291.909 325.347 237.414C368.851 184.211 368.295 173.796 394.772 166.411C438.769 154.136 468.434 176.546 536.617 194.309C579.153 205.378 620.873 209.35 661.223 206.172"  stroke-width="0.263706" stroke-miterlimit="10"/>
        <path d="M-250.772 806.85C-191.08 811.85 -137.186 787.018 -94.8939 735.03C-55.4595 686.011 -38.7388 623.206 -24.2686 580.096C27.7601 425.26 18.215 284.542 60.8707 278.579C82.5185 275.569 102.034 269.745 119.553 276.056C149.588 286.813 150.9 310.294 172.394 328.23C213.445 362.445 288.352 280.097 331.186 229.722C372.707 180.511 372.826 172.159 401.932 168.361C447.849 162.345 475.677 181.795 539.823 199.056C582.001 210.542 623.295 214.193 663.026 209.947"  stroke-width="0.263706" stroke-miterlimit="10"/>
        <path d="M-247.827 817.372C-189.598 823.219 -136.991 799.495 -95.8754 748.845C-56.8131 700.109 -41.7411 637.314 -26.1256 592.063C24.4314 445.607 21.3651 329.826 59.1312 306.139C82.7574 291.322 105.729 285.635 126.241 286.141C157.229 286.888 159.923 302.901 184.612 319.061C225.482 345.813 297.411 273.017 338.307 226.577C377.987 181.524 378.569 174.905 410.377 174.837C458.101 174.732 484.206 191.546 544.344 208.312C586.179 220.239 627.064 223.568 666.176 218.233"  stroke-width="0.263706" stroke-miterlimit="10"/>
        <path d="M-243.427 833.339C-186.664 840.016 -135.344 817.376 -95.4099 768.043C-56.7074 719.567 -43.2886 656.787 -26.5065 609.414C22.4739 471.15 21.9732 365.609 58.9063 339.092C86.3472 319.405 108.97 296.276 134.433 301.624C169.469 308.981 170.942 309.832 198.334 315.282C238.463 347.456 307.973 271.261 346.974 228.806C384.75 187.786 385.8 182.876 420.384 186.706C469.794 192.185 494.299 206.747 550.41 222.933C591.903 235.287 632.387 238.284 670.877 231.852"  stroke-width="0.263706" stroke-miterlimit="10"/>
        <path d="M-238.933 849.677C-183.635 857.201 -133.582 835.7 -94.7868 787.759C-56.4337 739.583 -44.6943 676.765 -26.7296 627.284C20.5408 497.045 22.3377 400.866 58.7691 372.589C90.1824 348.234 113.818 319.044 142.79 317.644C180.145 315.835 182.027 310.582 212.226 312.041C252.438 339.046 318.624 269.878 355.735 231.58C391.606 194.591 393.079 191.191 430.484 199.117C481.564 209.884 504.495 222.53 556.579 238.092C597.732 250.875 637.82 253.54 675.681 246.01"  stroke-width="0.263706" stroke-miterlimit="10"/>
        <path d="M-234.345 866.336C-180.535 874.66 -131.772 854.272 -94.1343 807.713C-56.1353 759.817 -46.0956 696.967 -26.9231 645.392C18.5632 523.03 22.5253 435.743 58.7907 406.275C94.1486 377.543 122.695 354.136 151.174 333.881C186.338 308.866 193.136 311.53 226.146 309.019C266.526 330.955 329.373 268.796 364.66 234.544C398.626 201.587 400.49 199.578 440.748 211.717C493.347 227.588 514.857 238.587 562.867 253.478C603.68 266.679 643.376 269.011 680.605 260.394"  stroke-width="0.263706" stroke-miterlimit="10"/>
        <path d="M-229.705 883.208C-186.848 890.999 -134.968 880.133 -93.3968 827.888C-55.6669 780.457 -47.4314 717.355 -27.0392 663.724C16.5482 549.107 22.6231 470.407 58.8193 440.209C98.2878 407.298 128.81 378.022 159.647 350.338C196.571 317.157 202.172 301.265 240.159 306.217C279.516 311.343 340.199 268.004 373.596 237.756C405.652 208.811 407.909 208.128 451.018 224.546C505.226 245.292 525.252 254.926 569.26 269.056C596.618 277.838 636.938 287.688 685.633 274.97"  stroke-width="0.263706" stroke-miterlimit="10"/>
        <path d="M-224.972 900.373C-180.925 909.007 -131.484 897.38 -92.5814 848.341C-55.2002 801.211 -48.717 737.967 -27.0684 682.332C14.5378 575.36 22.5709 505.085 58.944 474.413C102.606 437.575 135.136 402.269 168.2 367.072C207.011 325.747 213.145 302.738 254.254 303.693C293.457 304.666 351.064 267.333 382.634 241.239C412.8 216.299 415.432 216.645 461.394 237.664C517.173 263.148 535.739 271.624 575.695 284.925C602.76 293.941 642.575 303.971 690.709 289.858"  stroke-width="0.263706" stroke-miterlimit="10"/>
        <path d="M-220.195 917.736C-174.901 927.299 -127.955 914.822 -91.7176 869.011C-54.6843 822.179 -49.9782 758.781 -27.0476 701.154C12.5121 601.72 22.5108 539.779 59.1071 508.833C107.072 468.266 141.578 426.768 176.804 384.019C217.587 334.541 224.306 304.872 268.403 301.382C307.528 298.282 362.01 266.974 391.714 244.94C419.92 223.987 423.002 225.357 471.813 250.998C529.2 281.12 546.285 288.597 582.181 301.008C608.967 310.274 648.281 320.569 695.831 304.94"  stroke-width="0.263706" stroke-miterlimit="10"/>
        <path d="M-215.356 935.352C-168.924 945.735 -124.36 932.498 -90.7989 889.917C-54.1196 843.366 -51.2274 779.762 -26.9723 720.214C10.4748 628.233 19.0853 565.307 59.3332 543.486C116.392 512.542 148.112 451.512 185.465 401.201C228.267 343.576 232.248 287.258 282.612 299.307C324.702 309.441 372.942 266.747 400.864 248.873C427.143 231.958 430.637 234.214 482.294 264.543C541.297 299.214 556.892 305.89 588.724 317.326C615.229 326.864 654.044 337.359 701.016 320.276"  stroke-width="0.263706" stroke-miterlimit="10"/>
        <path d="M-210.341 953.539C-162.708 964.801 -120.611 950.707 -89.6614 911.507C-53.3451 865.238 -52.3096 801.356 -26.6873 739.96C8.63811 655.326 19.6074 602.102 59.7588 578.827C120.87 543.359 154.901 476.945 194.349 419.064C239.212 353.276 243.67 293.188 297.048 297.913C339.392 301.676 384.2 267.317 410.221 253.493C434.566 240.553 438.548 243.648 492.988 278.795C553.64 317.938 567.731 323.924 595.495 334.323C621.712 344.157 660.018 354.812 706.424 336.272"  stroke-width="0.263706" stroke-miterlimit="10"/>
        <path d="M-205.033 972.868C-156.21 985.018 -116.554 970.137 -88.2985 934.025C-52.335 888.035 -53.2063 823.809 -26.1645 760.631C6.91429 683.325 20.3587 639.824 60.4343 615.088C125.563 574.891 161.961 503.314 203.476 437.871C250.436 363.845 255.893 301.027 311.732 297.464C354.192 294.754 395.634 268.726 419.841 259.03C442.228 250.053 446.72 253.957 503.946 293.962C566.255 337.528 578.867 342.947 602.514 352.261C628.462 362.45 666.302 373.185 712.082 353.208"  stroke-width="0.263706" stroke-miterlimit="10"/>
        <path d="M-199.637 992.53C-149.612 1005.56 -112.412 989.863 -86.8146 956.992C-51.2084 911.262 -54.051 846.585 -25.52 781.749C5.31272 711.663 21.1871 677.963 61.219 651.797C130.269 606.671 169.157 530.1 212.72 457.106C261.843 374.838 268.693 310.032 326.537 297.44C368.989 288.196 407.188 270.521 429.576 265.016C449.983 259.967 455.024 264.621 515.017 309.578C579.039 357.526 590.071 362.608 609.658 370.646C635.332 381.255 672.605 392.062 717.864 370.59"  stroke-width="0.263706" stroke-miterlimit="10"/>
        <path d="M-193.774 1013.93C-142.547 1027.81 -107.859 1011.21 -84.8663 981.671C-49.6971 936.035 -54.5238 870.933 -24.409 804.58C4.14087 741.659 22.4664 717.797 62.4804 690.214C135.36 639.975 176.852 558.605 222.402 478.06C273.61 387.58 284.892 329.483 341.789 299.135C382.338 277.527 419.179 274.036 439.768 272.716C458.212 271.545 463.814 276.988 526.54 326.887C592.29 379.232 601.729 383.895 617.236 390.706C642.646 401.884 679.404 412.594 724.089 389.668"  stroke-width="0.263706" stroke-miterlimit="10"/>
        <path d="M-187.957 1035.1C-135.539 1049.87 -103.288 1032.46 -82.9556 1006.15C-48.1464 960.793 -55.1629 894.889 -23.3441 827.21C2.89521 771.401 23.6723 757.417 63.683 728.432C140.334 672.908 184.503 586.887 232.13 498.799C285.505 400.035 298.005 337.014 357.089 300.613C398.137 275.374 431.198 277.192 449.98 280.19C466.465 282.873 472.647 289.056 538.088 343.988C605.6 400.655 613.427 405.102 624.865 410.575C650.012 422.601 686.233 432.899 730.352 408.515"  stroke-width="0.263706" stroke-miterlimit="10"/>
        <path d="M-182.143 1056.3C-128.556 1071.94 -98.6574 1053.71 -81.0568 1030.63C-46.6444 985.572 -55.9679 918.561 -22.2881 849.845C1.6164 801.068 24.8561 797.045 64.8851 766.652C145.202 705.663 192.134 615.088 241.796 519.539C297.343 412.508 311.119 344.457 372.327 302.092C414.061 273.218 443.173 280.255 460.155 287.676C474.646 294.011 481.415 301.124 549.597 361.104C618.886 422.108 625.066 426.414 632.428 430.445C657.32 444.094 693.006 453.246 736.561 427.404"  stroke-width="0.263706" stroke-miterlimit="10"/>
    </g>
    <defs>
        <clipPath id="clip0_1664_4489">
            <rect width="588.291" height="712.755" fill="white" transform="translate(2.61133 0.381836) rotate(22.7776)"/>
        </clipPath>
    </defs>
</svg>
